<?xml version="1.0" encoding="utf-8"?>
<!-- Generator: Adobe Illustrator 21.1.0, SVG Export Plug-In . SVG Version: 6.00 Build 0)  -->
<svg version="1.1" id="Capa_1" xmlns="http://www.w3.org/2000/svg" xmlns:xlink="http://www.w3.org/1999/xlink" x="0px" y="0px"
	 viewBox="0 0 25.8 24.1" style="enable-background:new 0 0 25.8 24.1;" xml:space="preserve">
<style type="text/css">
	.st0{opacity:0.8;}
</style>
<title>b0</title>
<g id="Capa_2" class="st0">
	<g id="Capa_1-2">
		<g id="_Grupo_">
			<path id="_Trazado_compuesto_" d="M22.3,11.7l-8.7-7c-0.4-0.3-1-0.3-1.4,0l-8.7,7C3.2,11.9,3,12.2,3,12.5V23
				c0,0.6,0.5,1.1,1.1,1.1h17.5c0.6,0,1.1-0.5,1.1-1.1l0,0V12.5C22.7,12.2,22.6,11.9,22.3,11.7L22.3,11.7z M14,22h-2.3v-5.9H14V22z
				 M20.5,22h-4.3v-6.9c0-0.6-0.5-1.1-1-1.1h-4.5c-0.6,0-1.1,0.5-1.1,1.1V22H5.2v-9l7.6-6.1l7.6,6.1L20.5,22z"/>
			<path id="_Trazado_compuesto_2" d="M25.4,9.6c-2.4-1.9-4.7-3.7-7.2-5.7c-0.8-0.7-1.5-1.3-2.3-1.8s-1.5-1.2-2.2-1.8
				c-0.4-0.4-1-0.4-1.5,0c-0.7,0.6-1.5,1.2-2.2,1.8S8.4,3.3,7.6,3.9c-2.5,2-4.8,3.8-7.2,5.7C0,9.9-0.2,10.5,0.2,11
				c0,0,0,0.1,0.1,0.1c0.4,0.5,1.1,0.5,1.5,0.2c2.5-1.9,4.8-3.7,7.3-5.7l0,0c0.7-0.6,1.5-1.2,2.2-1.8c0.5-0.4,1.1-0.8,1.6-1.3
				c0.5,0.4,1.1,0.9,1.6,1.3C15.2,4.4,16,5,16.7,5.6l0,0c2.5,2,4.8,3.8,7.3,5.7c0.2,0.1,0.4,0.2,0.7,0.2c0.3,0,0.6-0.1,0.9-0.4
				C25.8,10.7,25.8,10,25.4,9.6C25.3,9.6,25.3,9.6,25.4,9.6L25.4,9.6z"/>
		</g>
	</g>
</g>
</svg>
