<?xml version="1.0" encoding="utf-8"?>
<!-- Generator: Adobe Illustrator 21.1.0, SVG Export Plug-In . SVG Version: 6.00 Build 0)  -->
<svg version="1.1" id="Capa_1" xmlns="http://www.w3.org/2000/svg" xmlns:xlink="http://www.w3.org/1999/xlink" x="0px" y="0px"
	 viewBox="0 0 62.4 62.4" style="enable-background:new 0 0 62.4 62.4;" xml:space="preserve">
<style type="text/css">
	.st0{fill:#F3705A;}
	.st1{fill:#ECEDEF;}
	.st2{fill:#68727E;}
	.st3{fill:#66C6B9;}
</style>
<title>b3</title>
<path class="st0" d="M33.2,47.2v-2.9l-3.9-0.9c-0.1-0.7-0.3-1.4-0.5-2.1l3-2.7l-1.4-2.5l-3.8,1.2L25,35.7l1.2-3.7l-2.5-1.4l-2.7,3
	c-0.7-0.3-1.4-0.4-2.1-0.6L18,29.1h-2.8L14.3,33c-0.7,0.1-1.4,0.3-2.1,0.5l-2.7-3L7,32l1.2,3.8l-1.6,1.5l-3.8-1.2l-1.4,2.5l3,2.7
	C4.2,42,4,42.7,3.9,43.4L0,44.3v2.9l3.9,0.9c0.1,0.7,0.3,1.4,0.5,2.1l-3,2.7l1.4,2.5l3.8-1.2l1.6,1.6L7,59.5l2.5,1.4l2.7-3
	c0.7,0.2,1.4,0.4,2.1,0.5l0.9,3.9H18l0.9-3.9c0.7-0.1,1.4-0.2,2.1-0.5l2.7,3l2.5-1.4L25,55.7l1.6-1.6l3.8,1.2l1.4-2.5l-3-2.7
	c0.2-0.7,0.4-1.4,0.5-2.1L33.2,47.2z"/>
<path class="st1" d="M16.6,53.5c-4.3,0-7.8-3.5-7.8-7.8s3.5-7.8,7.8-7.8c4.3,0,7.8,3.5,7.8,7.8c0,0,0,0,0,0
	C24.4,50,20.9,53.5,16.6,53.5z"/>
<path class="st2" d="M16.6,43c-1.5,0-2.7,1.2-2.7,2.7c0,1.5,1.2,2.7,2.7,2.7c1.5,0,2.7-1.2,2.7-2.7c0,0,0,0,0,0
	c0-1.5-1.1-2.7-2.6-2.7C16.7,43,16.6,43,16.6,43z"/>
<path class="st3" d="M61.3,26.6l0.9-3.3l-4.2-2.2c0.1-0.9,0.1-1.7,0-2.6l4.3-2.2l-1-3.4l-4.8,0.3c-0.4-0.8-0.8-1.6-1.3-2.3l2.6-4
	l-2.5-2.5l-4,2.6c-0.7-0.5-1.4-0.9-2.2-1.3l0.2-4.8L46,0l-2.2,4.3c-0.9-0.1-1.7-0.1-2.6,0l-2-4.3l-3.4,0.9L36,5.7
	c-0.8,0.4-1.6,0.8-2.3,1.3l-4-2.6l-2.5,2.4l2.6,4c-0.5,0.7-0.9,1.5-1.3,2.2l-4.8-0.3l-0.9,3.4l4.3,2.2c-0.1,0.9-0.1,1.7,0,2.6
	l-4.3,2.2l0.9,3.4l4.8-0.3c0.4,0.8,0.8,1.6,1.3,2.3l-2.6,4l2.5,2.5l4-2.6c0.7,0.5,1.4,0.9,2.2,1.3l-0.3,4.8l3.4,0.9l2.2-4.2
	c0.9,0.1,1.7,0.1,2.6,0l2.2,4.3l3.4-0.9l-0.3-4.8c0.8-0.4,1.6-0.8,2.3-1.3l4,2.6l2.6-2.5l-2.6-4c0.5-0.7,0.9-1.4,1.3-2.2L61.3,26.6z
	"/>
<path class="st1" d="M40.6,27c-4-1.1-6.4-5.2-5.3-9.2s5.2-6.4,9.2-5.3s6.4,5.2,5.3,9.2c0,0,0,0,0,0C48.7,25.6,44.6,28,40.6,27z"/>
<path class="st2" d="M43.4,16.5c-1.8-0.5-3.7,0.5-4.2,2.3c-0.5,1.8,0.5,3.7,2.3,4.2c1.8,0.5,3.7-0.5,4.2-2.3
	C46.2,18.9,45.2,17.1,43.4,16.5z"/>
<path class="st2" d="M22.2,20.1v-3.3l-3-0.6c-0.1-0.7-0.4-1.3-0.8-1.8l1.7-2.6l-2.3-2.3l-2.6,1.7c-0.5-0.4-1.2-0.7-1.8-0.8l-0.6-3
	H9.5l-0.6,3c-0.7,0.1-1.3,0.4-1.8,0.8L4.4,9.5l-2.3,2.3l1.7,2.5c-0.4,0.6-0.6,1.3-0.8,1.9l-3,0.6v3.3l3,0.6c0.1,0.7,0.4,1.3,0.8,1.8
	l-1.7,2.5l2.3,2.3L7,25.7c0.5,0.4,1.2,0.7,1.8,0.8l0.6,3h3.2l0.6-3c0.7-0.1,1.3-0.4,1.9-0.8l2.5,1.7l2.3-2.3l-1.7-2.6
	c0.4-0.5,0.7-1.2,0.8-1.8L22.2,20.1z M11.2,21.6c-1.7,0-3-1.3-3-3s1.3-3,3-3s3,1.3,3,3C14.2,20.2,12.8,21.6,11.2,21.6
	C11.2,21.6,11.2,21.6,11.2,21.6L11.2,21.6z"/>
</svg>
