<?xml version="1.0" encoding="utf-8"?>
<!-- Generator: Adobe Illustrator 21.1.0, SVG Export Plug-In . SVG Version: 6.00 Build 0)  -->
<svg version="1.1" id="Capa_1" xmlns="http://www.w3.org/2000/svg" xmlns:xlink="http://www.w3.org/1999/xlink" x="0px" y="0px"
	 viewBox="0 0 294.7 346.8" style="enable-background:new 0 0 294.7 346.8;" xml:space="preserve">
<style type="text/css">
	.st0{fill:#68727E;}
	.st1{fill:#D2D6D9;}
	.st2{fill:#D5D6DB;}
	.st3{fill:#FCD462;}
	.st4{fill:#44C4A1;}
	.st5{fill:#E56353;}
	.st6{opacity:0.5;fill:#4E565F;}
	.st7{fill:#868B8F;}
	.st8{fill:#EBF0F3;}
	.st9{fill:#D15241;}
	.st10{fill:#64798A;}
	.st11{fill:#3D4969;}
</style>
<title>i2</title>
<path class="st0" d="M286.3,161.9H117.4c-4.6,0-8.3,3.7-8.3,8.3v168.8c0,4.6,3.7,8.3,8.3,8.3h168.8c4.6,0,8.3-3.7,8.3-8.3V170.2
	C294.6,165.6,290.9,161.9,286.3,161.9z"/>
<g>
	<rect x="122.6" y="196.4" class="st1" width="158.5" height="137.5"/>
	<rect x="122.6" y="173.9" class="st1" width="113.3" height="9.6"/>
</g>
<rect x="122.6" y="328.8" class="st2" width="158.5" height="5.1"/>
<circle class="st3" cx="246.4" cy="178.7" r="4.8"/>
<circle class="st4" cx="261.4" cy="178.7" r="4.8"/>
<circle class="st5" cx="276.3" cy="178.7" r="4.8"/>
<path class="st6" d="M117.4,161.9c-4.6,0-8.3,3.7-8.3,8.3v21.6H183c4.6,0,8.3-3.7,8.3-8.3v-21.6H117.4z"/>
<path class="st7" d="M177.1,0.6H8.2c-4.6,0-8.3,3.7-8.3,8.3v168.8c0,4.6,3.7,8.3,8.3,8.3h168.8c4.6,0,8.3-3.7,8.3-8.3V8.9
	C185.4,4.3,181.7,0.6,177.1,0.6z"/>
<g>
	<rect x="13.4" y="35.1" class="st8" width="158.5" height="137.5"/>
	<rect x="13.4" y="12.6" class="st8" width="113.3" height="9.6"/>
</g>
<circle class="st3" cx="137.2" cy="17.3" r="4.8"/>
<circle class="st4" cx="152.2" cy="17.3" r="4.8"/>
<circle class="st5" cx="167.1" cy="17.3" r="4.8"/>
<path class="st5" d="M125.6,111.5c-0.3,17.5-14.6,31.6-32.1,31.6c-17.6,0-31.8-14.1-32.1-31.6H44v6.1c0,1.2,1,2.1,2.1,2.1h5.9
	c1.1,5.1,3.1,9.9,5.9,14.2l-4.2,4.2c-0.8,0.8-0.8,2.2,0,3l9.5,9.5c0.8,0.8,2.2,0.8,3,0l4.2-4.2c4.3,2.8,9.1,4.8,14.2,5.9v5.9
	c0,1.2,1,2.1,2.1,2.1h13.4c1.2,0,2.1-1,2.1-2.1v-5.9c5.1-1.1,9.9-3.1,14.2-5.9l4.2,4.2c0.8,0.8,2.2,0.8,3,0l9.5-9.5
	c0.8-0.8,0.8-2.2,0-3L129,134c2.8-4.3,4.8-9.1,5.9-14.2h5.9c1.2,0,2.1-1,2.1-2.1v-6.1H125.6z"/>
<path class="st9" d="M123.5,111.5c-0.3,16.3-13.6,29.4-30,29.4c-16.4,0-29.7-13.1-30-29.4h-3.4c0.3,18.2,15.1,32.8,33.4,32.8
	c18.3,0,33.1-14.6,33.4-32.8H123.5z"/>
<path class="st9" d="M76.1,111.5c0.3,9.3,7.9,16.8,17.4,16.8c9.4,0,17-7.5,17.4-16.8H76.1z"/>
<g>
	<rect x="27" y="106" class="st10" width="133.9" height="5.4"/>
	<path class="st10" d="M30.8,79.4v-6.4l24-11.1v5.8l-18,8.1v0.6l18,8.3v5.8L30.8,79.4z"/>
	<path class="st10" d="M154.5,72.9v6.4l-24,11.1v-5.8l18-8.3v-0.6l-18-8.1v-5.8L154.5,72.9z"/>
	<g>
		<path class="st10" d="M59.6,62.1H66V85h11.2v5.4H59.6V62.1z"/>
		<path class="st10" d="M81,62.5c2-0.3,4.7-0.6,8.6-0.6c3.9,0,6.7,0.8,8.6,2.3c1.8,1.4,3,3.8,3,6.5c0,2.8-0.9,5.2-2.6,6.7
			c-2.2,2-5.4,3-9.2,3c-0.8,0-1.6,0-2.2-0.2v10.1H81V62.5z M87.3,75.3c0.5,0.1,1.2,0.2,2.1,0.2c3.4,0,5.5-1.7,5.5-4.6
			c0-2.6-1.8-4.2-5-4.2c-1.3,0-2.1,0.1-2.6,0.2V75.3z"/>
		<path class="st10" d="M105.4,62.5c2-0.3,4.7-0.6,8.6-0.6c3.9,0,6.7,0.8,8.6,2.3c1.8,1.4,3,3.8,3,6.5c0,2.8-0.9,5.2-2.6,6.7
			c-2.2,2-5.4,3-9.2,3c-0.8,0-1.6,0-2.2-0.2v10.1h-6.3V62.5z M111.7,75.3c0.5,0.1,1.2,0.2,2.1,0.2c3.4,0,5.5-1.7,5.5-4.6
			c0-2.6-1.8-4.2-5-4.2c-1.3,0-2.1,0.1-2.6,0.2V75.3z"/>
	</g>
</g>
<g>
	<g>
		<path class="st11" d="M233.1,222.8c-6.3-7-14.6-13.5-35.2-13.7c-8-0.1-20.3,1.8-29.8,11.9c-5.8,6.1-10,13.8-8.8,26.4
			c0.3,2.7,4.2,5.9,1.4,11.2c0,0-5.9,10.3-5.7,12.1c0,0-0.1,3.2,4.8,3.2c0,0,1.2,0.2,0.9,2.8l-0.1,3.9c0,0,0.2,1.2,2.3,1.9
			c0,0,0.4,0.4-0.2,1.2c0,0-1.1,1.3,0.8,4c0.7,1,1.9,2.2,1.2,4.8c0,0-0.9,4.9,1,6.1c0,0,2.2,2.6,11,1.5c3.1-0.4,8.8-1.9,12.2,2.4
			c0,0,8.1,15.4,8.7,19.1c0,0,13.9-24.7,30.8-28.5c0,0-4.1-9.3,4.3-21.3c0,0,10.5-13.8,10.8-21.5
			C243.4,250.2,246.2,237.4,233.1,222.8z M219.4,268.8c-7.1,0.2-7.5-4.5-10.8-8.2c-0.5,0-1,0.1-1.5,0.1c-8.4,0.2-6.8-8.7-10.1-11.1
			c-7.8-5.8-18.9-0.8-24.6-6.6c-1.9-1.9-3.4-3.7-3.7-6.2c-0.6-5.9,0.8-8.5,3.7-11.6c7.9-8.3,18-10.1,25.2-10.1
			c19.2,0.1,25.9,5.9,31.1,11.7c8.7,9.7,9.2,18,9.1,21c0,0.4,0.1,0.7,0.1,1.1C237.9,259.8,229.6,268.4,219.4,268.8z"/>
	</g>
</g>
<g>
	<path class="st10" d="M181.7,242.2c0,0.6,0.5,1.1,1.1,1.1s1.1-0.5,1.1-1.1v-8.6c0-0.4-0.3-0.8-0.7-1c-0.4-0.2-0.9-0.1-1.2,0.2
		l-2.8,2.8c-0.4,0.4-0.4,1.1,0,1.6c0.4,0.4,1.1,0.4,1.6,0l0.9-0.9V242.2z"/>
	<path class="st10" d="M188.2,223.2l0.9-0.9v5.9c0,0.6,0.5,1.1,1.1,1.1s1.1-0.5,1.1-1.1v-8.6c0-0.4-0.3-0.8-0.7-1
		c-0.4-0.2-0.9-0.1-1.2,0.2l-2.8,2.8c-0.4,0.4-0.4,1.1,0,1.6C187.1,223.6,187.8,223.6,188.2,223.2z"/>
	<path class="st10" d="M200.7,232.6c-0.4-0.2-0.9-0.1-1.2,0.2l-2.8,2.8c-0.4,0.4-0.4,1.1,0,1.6c0.4,0.4,1.1,0.4,1.6,0l0.9-0.9v5.9
		c0,0.6,0.5,1.1,1.1,1.1s1.1-0.5,1.1-1.1v-8.6C201.4,233.2,201.2,232.8,200.7,232.6z"/>
	<path class="st10" d="M209.7,246c-0.4-0.2-0.9-0.1-1.2,0.2l-2.8,2.8c-0.4,0.4-0.4,1.1,0,1.6c0.4,0.4,1.1,0.4,1.6,0l0.9-0.9v5.9
		c0,0.6,0.5,1.1,1.1,1.1s1.1-0.5,1.1-1.1v-8.6C210.4,246.6,210.1,246.2,209.7,246z"/>
	<path class="st10" d="M219.3,232.6c-0.4-0.2-0.9-0.1-1.2,0.2l-2.8,2.8c-0.4,0.4-0.4,1.1,0,1.6c0.4,0.4,1.1,0.4,1.6,0l0.9-0.9v5.9
		c0,0.6,0.5,1.1,1.1,1.1s1.1-0.5,1.1-1.1v-8.6C220,233.2,219.7,232.8,219.3,232.6z"/>
	<path class="st10" d="M228.5,232.6c-0.4-0.2-0.9-0.1-1.2,0.2l-2.8,2.8c-0.4,0.4-0.4,1.1,0,1.6c0.4,0.4,1.1,0.4,1.6,0l0.9-0.9v5.9
		c0,0.6,0.5,1.1,1.1,1.1s1.1-0.5,1.1-1.1v-8.6C229.2,233.2,228.9,232.8,228.5,232.6z"/>
	<path class="st10" d="M194.1,239.6v-3.2c0-2.1-1.7-3.8-3.8-3.8h-0.1c-2.1,0-3.8,1.7-3.8,3.8v3.2c0,2.1,1.7,3.8,3.8,3.8h0.1
		C192.4,243.3,194.1,241.6,194.1,239.6z M191.9,239.6c0,0.9-0.7,1.6-1.6,1.6h-0.1c-0.9,0-1.6-0.7-1.6-1.6v-3.2
		c0-0.9,0.7-1.6,1.6-1.6h0.1c0.9,0,1.6,0.7,1.6,1.6V239.6z"/>
	<path class="st10" d="M207.9,232.5L207.9,232.5c-2.1,0-3.8,1.7-3.8,3.8v3.2c0,2.1,1.7,3.8,3.8,3.8h0.1c2.1,0,3.8-1.7,3.8-3.8v-3.2
		C211.7,234.2,210,232.5,207.9,232.5z M209.5,239.6c0,0.9-0.7,1.6-1.6,1.6h-0.1c-0.9,0-1.6-0.7-1.6-1.6v-3.2c0-0.9,0.7-1.6,1.6-1.6
		h0.1c0.9,0,1.6,0.7,1.6,1.6V239.6z"/>
	<path class="st10" d="M197.7,218.5L197.7,218.5c-2.1,0-3.8,1.7-3.8,3.8v3.2c0,2.1,1.7,3.8,3.8,3.8h0.1c0.6,0,1.1-0.5,1.1-1.1
		s-0.5-1.1-1.1-1.1h-0.1c-0.9,0-1.6-0.7-1.6-1.6v-3.2c0-0.9,0.7-1.6,1.6-1.6h0.1c0.9,0,1.6,0.7,1.6,1.6c0,0.6,0.5,1.1,1.1,1.1
		s1.1-0.5,1.1-1.1C201.5,220.2,199.8,218.5,197.7,218.5z"/>
	<path class="st10" d="M207.9,218.5L207.9,218.5c-2.1,0-3.8,1.7-3.8,3.8v3.2c0,2.1,1.7,3.8,3.8,3.8h0.1c2.1,0,3.8-1.7,3.8-3.8v-3.2
		C211.7,220.2,210,218.5,207.9,218.5z M209.5,225.5c0,0.9-0.7,1.6-1.6,1.6h-0.1c-0.9,0-1.6-0.7-1.6-1.6v-3.2c0-0.9,0.7-1.6,1.6-1.6
		h0.1c0.9,0,1.6,0.7,1.6,1.6V225.5z"/>
	<path class="st10" d="M228.5,246.2c-0.4-0.2-0.9-0.1-1.2,0.2l-2.8,2.8c-0.4,0.4-0.4,1.1,0,1.6c0.4,0.4,1.1,0.4,1.6,0l0.9-0.9v3.3
		c0,0.6,0.5,1.1,1.1,1.1s1.1-0.5,1.1-1.1v-5.9C229.2,246.7,228.9,246.3,228.5,246.2z"/>
	<path class="st10" d="M217.5,246.1L217.5,246.1c-2.1,0-3.8,1.7-3.8,3.8v3.2c0,2.1,1.7,3.8,3.8,3.8h0.1c2.1,0,3.8-1.7,3.8-3.8v-3.2
		C221.3,247.8,219.6,246.1,217.5,246.1z M219.1,253.1c0,0.9-0.7,1.6-1.6,1.6h-0.1c-0.9,0-1.6-0.7-1.6-1.6v-3.2
		c0-0.9,0.7-1.6,1.6-1.6h0.1c0.9,0,1.6,0.7,1.6,1.6V253.1z"/>
</g>
</svg>
