<svg xmlns="http://www.w3.org/2000/svg" viewBox="0 0 63.86 60.1"><defs><style>.cls-1{fill:#66c6b9;}.cls-2{fill:#ecedef;}.cls-3{fill:#d9d9db;}.cls-4{fill:#ff8c78;}</style></defs><title>img16</title><g id="Capa_2" data-name="Capa 2"><g id="Capa_1-2" data-name="Capa 1"><path class="cls-1" d="M61,0H2.9A2.9,2.9,0,0,0,0,2.9V49.35a2.9,2.9,0,0,0,2.9,2.9H61a2.9,2.9,0,0,0,2.9-2.9V2.9A2.9,2.9,0,0,0,61,0Z"/><rect class="cls-2" x="25.16" y="29.03" width="32.19" height="5.81"/><rect class="cls-2" x="25.16" y="40.64" width="32.19" height="5.81"/><rect class="cls-2" x="25.16" y="17.42" width="32.19" height="5.81"/><rect class="cls-3" x="5.81" y="17.42" width="13.55" height="5.81"/><rect class="cls-2" x="25.16" y="5.81" width="32.19" height="5.81"/><rect class="cls-3" x="5.81" y="5.81" width="13.55" height="5.81"/><rect class="cls-3" x="5.81" y="29.03" width="13.55" height="5.81"/><rect class="cls-3" x="5.81" y="40.64" width="13.55" height="5.81"/><path class="cls-4" d="M50.36,59.88l9.46-9.46a.76.76,0,0,0-.54-1.3H55.1a.76.76,0,0,1-.76-.76V31.79a.76.76,0,0,0-.76-.76H46.06a.76.76,0,0,0-.76.76V48.35a.76.76,0,0,1-.76.76H40.36a.76.76,0,0,0-.54,1.3l9.46,9.46A.76.76,0,0,0,50.36,59.88Z"/></g></g></svg>