<svg xmlns="http://www.w3.org/2000/svg" viewBox="0 0 225.9 115"><defs><style>.cls-1{fill:#f9f1d8;}.cls-1,.cls-2{stroke:#000;stroke-miterlimit:10;}.cls-2{fill:none;}.cls-3{font-size:12px;font-family:Tahoma, Tahoma;}.cls-4{letter-spacing:0em;}.cls-5{letter-spacing:-0.02em;}</style></defs><title>img15</title><g id="Capa_2" data-name="Capa 2"><g id="Capa_1-2" data-name="Capa 1"><rect class="cls-1" x="0.5" y="0.5" width="140.5" height="22"/><rect class="cls-2" x="140.4" y="0.5" width="85" height="22"/><text class="cls-3" transform="translate(10 15.5)">Nomb<tspan class="cls-4" x="31.24" y="0">r</tspan><tspan x="35.5" y="0">e de los Acto</tspan><tspan class="cls-4" x="103.89" y="0">r</tspan><tspan x="108.16" y="0">es</tspan></text><rect class="cls-1" x="0.5" y="22.5" width="140.5" height="35"/><rect class="cls-2" x="140.4" y="22.5" width="85" height="35"/><text class="cls-3" transform="translate(10 37.5)">Nomb<tspan class="cls-4" x="31.24" y="0">r</tspan><tspan x="35.5" y="0">e de</tspan><tspan x="0" y="14.4">los Casos de Uso</tspan></text><rect class="cls-1" x="0.5" y="57.5" width="140.5" height="22"/><rect class="cls-2" x="140.4" y="57.5" width="85" height="22"/><text class="cls-3" transform="translate(10 72.5)">Nomb<tspan class="cls-4" x="31.24" y="0">r</tspan><tspan x="35.5" y="0">e del Sistema</tspan></text><rect class="cls-1" x="0.5" y="79.5" width="140.5" height="35"/><rect class="cls-2" x="140.4" y="79.5" width="85" height="35"/><text class="cls-3" transform="translate(10 94.5)"><tspan class="cls-5">R</tspan><tspan x="7.23" y="0">elación ent</tspan><tspan class="cls-4" x="64.85" y="0">r</tspan><tspan x="69.11" y="0">e</tspan><tspan x="0" y="14.4">los Acto</tspan><tspan class="cls-4" x="41.63" y="14.4">r</tspan><tspan x="45.89" y="14.4">es</tspan></text></g></g></svg>