<svg xmlns="http://www.w3.org/2000/svg" viewBox="0 0 397.67 371.8"><defs><style>.cls-1{fill:#f9f1d8;}.cls-1,.cls-3{stroke:#000;stroke-miterlimit:10;}.cls-2{font-size:16px;font-family:Tahoma, Tahoma;}.cls-3{fill:none;}.cls-4{letter-spacing:-0.09em;}.cls-5{letter-spacing:-0.01em;}.cls-6{letter-spacing:-0.01em;}.cls-7{letter-spacing:-0.02em;}.cls-8{letter-spacing:0em;}.cls-9{letter-spacing:0em;}.cls-10{letter-spacing:-0.01em;}.cls-11{letter-spacing:-0.1em;}</style></defs><title>img13</title><g id="Capa_2" data-name="Capa 2"><g id="Capa_1-2" data-name="Capa 1"><rect class="cls-1" x="0.5" y="0.5" width="76" height="36"/><text class="cls-2" transform="translate(13.76 22.99)">Esposo</text><rect class="cls-1" x="321.17" y="0.5" width="76" height="36"/><text class="cls-2" transform="translate(334.57 22.99)">Esposa</text><line class="cls-3" x1="76.5" y1="27.81" x2="321.17" y2="27.81"/><text class="cls-2" transform="translate(82.13 22.06)">1</text><text class="cls-2" transform="translate(306.13 22.06)">1</text><text class="cls-2" transform="translate(131.32 22.06)">Esta casado con</text><polygon points="266.34 18.48 254.01 12.32 254.01 24.65 266.34 18.48"/><rect class="cls-1" x="0.5" y="282.83" width="76" height="36"/><text class="cls-2" transform="translate(14.48 305.32)"><tspan class="cls-4">T</tspan><tspan x="7.86" y="0">riciclo</tspan></text><rect class="cls-1" x="321.17" y="282.83" width="76" height="36"/><text class="cls-2" transform="translate(333.39 305.32)"><tspan class="cls-5">R</tspan><tspan x="9.84" y="0">uedas</tspan></text><line class="cls-3" x1="76.5" y1="310.14" x2="321.17" y2="310.14"/><text class="cls-2" transform="translate(82.13 304.39)">1</text><text class="cls-2" transform="translate(306.13 304.39)">3</text><text class="cls-2" transform="translate(169.56 304.39)">Tiene</text><polygon points="228.11 300.81 215.78 294.65 215.78 306.98 228.11 300.81"/><rect class="cls-1" x="0.5" y="335.3" width="76" height="36"/><text class="cls-2" transform="translate(9.35 357.79)">Hue<tspan class="cls-6" x="28.15" y="0">v</tspan><tspan x="35.99" y="0">e</tspan><tspan class="cls-7" x="44.41" y="0">r</tspan><tspan x="49.91" y="0">a</tspan></text><rect class="cls-1" x="321.17" y="335.3" width="76" height="36"/><text class="cls-2" transform="translate(333.26 357.79)">Hue<tspan class="cls-6" x="28.15" y="0">v</tspan><tspan x="35.99" y="0">os</tspan></text><line class="cls-3" x1="76.5" y1="362.6" x2="321.17" y2="362.6"/><text class="cls-2" transform="translate(82.13 356.85)">1</text><text class="cls-2" transform="translate(274.61 356.85)">12.24</text><text class="cls-2" transform="translate(158.25 356.85)">Contiene</text><polygon points="239.41 353.28 227.08 347.11 227.08 359.44 239.41 353.28"/><rect class="cls-1" x="0.5" y="52.97" width="76" height="36"/><text class="cls-2" transform="translate(10.49 75.46)">Maest<tspan class="cls-8" x="41.64" y="0">r</tspan><tspan x="47.33" y="0">o</tspan></text><rect class="cls-1" x="311.17" y="52.97" width="86" height="36"/><text class="cls-2" transform="translate(317.17 75.46)">Estudiante</text><line class="cls-3" x1="76.5" y1="80.27" x2="311.17" y2="80.27"/><text class="cls-2" transform="translate(82.13 74.52)">1</text><text class="cls-2" transform="translate(296.13 74.52)">*</text><text class="cls-2" transform="translate(158.55 74.52)">Enseña</text><polygon points="229.11 70.95 216.78 64.78 216.78 77.12 229.11 70.95"/><rect class="cls-1" x="0.5" y="105.43" width="76" height="36"/><text class="cls-2" transform="translate(15.84 127.92)">Caje<tspan class="cls-8" x="30.94" y="0">r</tspan><tspan x="36.63" y="0">o</tspan></text><rect class="cls-1" x="311.17" y="105.43" width="86" height="36"/><text class="cls-2" transform="translate(330.14 127.92)">C<tspan class="cls-9" x="9.61" y="0">l</tspan><tspan x="13.28" y="0">iente</tspan></text><line class="cls-3" x1="76.5" y1="132.74" x2="311.17" y2="132.74"/><text class="cls-2" transform="translate(82.13 126.99)">1</text><text class="cls-2" transform="translate(276.92 126.99)">1..*</text><text class="cls-2" transform="translate(157.51 126.99)"><tspan class="cls-10">A</tspan><tspan x="9.48" y="0">tiende</tspan></text><polygon points="230.23 123.42 217.9 117.25 217.9 129.58 230.23 123.42"/><rect class="cls-1" x="0.5" y="157.9" width="76" height="36"/><text class="cls-2" transform="translate(21.73 180.39)">Casa</text><rect class="cls-1" x="311.17" y="157.9" width="86" height="36"/><text class="cls-2" transform="translate(319.27 180.39)">Chimenea</text><line class="cls-3" x1="76.5" y1="185.2" x2="311.17" y2="185.2"/><text class="cls-2" transform="translate(82.13 179.45)">1</text><text class="cls-2" transform="translate(276.92 179.45)">1..*</text><text class="cls-2" transform="translate(160.35 179.45)">Tiende</text><polygon points="227.32 175.88 214.99 169.71 214.99 182.05 227.32 175.88"/><rect class="cls-1" x="0.5" y="210.36" width="132" height="56"/><text class="cls-2" transform="translate(18.38 232.71)">Estudiante de <tspan x="-10.81" y="19.2">tiempo completo</tspan></text><rect class="cls-1" x="311.17" y="210.36" width="86" height="56"/><text class="cls-2" transform="translate(319.27 242.86)">Chimenea</text><line class="cls-3" x1="132.5" y1="247.67" x2="311.17" y2="247.67"/><text class="cls-2" transform="translate(138.13 241.92)">1</text><text class="cls-2" transform="translate(259.19 241.92)">12..18</text><text class="cls-2" transform="translate(174.19 241.92)"><tspan class="cls-11">T</tspan><tspan x="7.71" y="0">oma</tspan></text><polygon points="231.47 238.35 219.14 232.18 219.14 244.51 231.47 238.35"/></g></g></svg>