<?xml version="1.0" encoding="utf-8"?>
<!-- Generator: Adobe Illustrator 22.0.1, SVG Export Plug-In . SVG Version: 6.00 Build 0)  -->
<svg version="1.1" id="Capa_1" xmlns="http://www.w3.org/2000/svg" xmlns:xlink="http://www.w3.org/1999/xlink" x="0px" y="0px"
	 viewBox="0 0 508.9 285.3" style="enable-background:new 0 0 508.9 285.3;" xml:space="preserve">
<style type="text/css">
	.st0{fill:#E6AF78;}
	.st1{fill:#707487;}
	.st2{fill:#D29B6E;}
	.st3{fill:#F0C087;}
	.st4{fill:#5B5D6E;}
	.st5{fill:#785550;}
	.st6{fill:#694B4B;}
	.st7{fill:#5A4146;}
	.st8{fill:#CFDBFA;}
	.st9{fill:#B6CBF6;}
	.st10{fill:#515262;}
	.st11{fill:#786A50;}
	.st12{fill:#695B4B;}
	.st13{fill:#5A4D41;}
	.st14{fill:#EBCDFA;}
	.st15{fill:#E1C2F6;}
	.st16{fill:none;stroke:#000000;stroke-miterlimit:10;}
	.st17{font-family:'Tahoma';}
	.st18{font-size:12px;}
	.st19{letter-spacing:-1;}
</style>
<title>img14</title>
<g id="Capa_2_1_">
	<g id="Capa_1-2">
		<polygon class="st0" points="28.8,203.7 38.8,194.8 38.8,187.1 18.9,187.1 18.9,194.8 		"/>
		<path class="st1" d="M0,202.8v8.7c0,1.2,1,2.2,2.2,2.2c0,0,0,0,0,0h53.2c1.2,0,2.2-1,2.2-2.2l0,0v-8.7c0-2.1-1.4-3.8-3.4-4.3
			l-13.7-3.2c-0.4-0.1-0.7-0.3-1-0.6l-10.7,6.8L17.7,195c-0.2,0.1-0.4,0.2-0.6,0.2l-13.7,3.2C1.4,198.9,0,200.7,0,202.8z"/>
		<path class="st2" d="M18.9,187.1v1.4c0,0,7.4,11.3,20,6.8v-8.2H18.9z"/>
		<path class="st3" d="M14.4,161.6l1,21.3c0.1,2,1.1,3.8,2.6,5l4.6,3.4c1.2,0.9,2.6,1.3,4,1.3H31c1.4,0,2.8-0.5,4-1.3l4.6-3.4
			c1.6-1.2,2.6-3,2.7-5l1-21.3H14.4z"/>
		<path class="st0" d="M35.5,169.3v13.3c0,5.5-4.4,10-6.6,10H31c1.4,0,2.8-0.5,4-1.3l4.6-3.4c1.6-1.2,2.6-3,2.7-5l1-21.3H19.5
			c1.6,3.3,8.2,4.4,12.7,4.4C33.9,166.2,35.4,167.6,35.5,169.3z"/>
		<path class="st4" d="M10,210.6v3.1H2.2c-1.2,0-2.2-1-2.2-2.2c0,0,0,0,0,0v-8.7c0-1,0.4-2,1-2.8l7.2,6.4C9.4,207.5,10,209,10,210.6
			z"/>
		<path class="st4" d="M47.7,210.6v3.1h7.8c1.2,0,2.2-1,2.2-2.2l0,0v-8.7c0-1-0.4-2-1-2.8l-7.2,6.4
			C48.3,207.6,47.7,209.1,47.7,210.6z"/>
		<path class="st4" d="M40.6,192.6l1.5,2.3l-4.8,10.5c-0.3,0.7-1.2,1-1.9,0.7c-0.1-0.1-0.2-0.1-0.3-0.2c-2-1.6-4.1-3.1-6.3-4.3
			l10.2-9.1C39.5,192,40.2,192,40.6,192.6C40.6,192.5,40.6,192.6,40.6,192.6z"/>
		<path class="st4" d="M17,192.6l-1.5,2.3l4.8,10.5c0.3,0.7,1.2,1,1.9,0.7c0.1-0.1,0.2-0.1,0.3-0.2c2-1.6,4.1-3.1,6.3-4.3l-10.1-9.1
			c-0.4-0.4-1.1-0.4-1.6,0C17.1,192.5,17,192.5,17,192.6z"/>
		<path class="st5" d="M11.2,168.2c2.8,3.1,2.2,7.8,2.2,7.8l1.8-2.8c0.2-0.3,0.3-0.7,0.4-1.1c0.1-2.1,0.8-9.6,5.5-10.5l1-7.4
			C10.2,149.8,11.2,168.2,11.2,168.2z"/>
		<path class="st3" d="M14.5,172.7L14.5,172.7c1.3,0,2.3,1,2.3,2.3c0,0.1,0,0.2,0,0.3l-0.6,5.1c-0.1,0.7-0.6,1.2-1.3,1.2l0,0
			c-0.6,0-1.1-0.4-1.3-1l-1.3-5c-0.3-1.2,0.4-2.5,1.7-2.8C14.1,172.7,14.3,172.7,14.5,172.7z"/>
		<path class="st6" d="M28.8,149.4c-8.6-0.1-12,4.4-12.2,6.6c-0.5,4.3,2.1,7.8,11.4,7.8c3.5,0,6.9-1.2,10.7,1.1
			c4.2,2.5,3.3,8.9,3.3,8.9l2.2,2.2c0,0,0-5.5,2.2-7.8c0,0,1.4-9.4-6-14.9l1.6-1.1C38.8,150.5,32.3,149.4,28.8,149.4z"/>
		<path class="st7" d="M24.1,163.5c1.3,0.2,2.7,0.3,4,0.3c3.5,0,6.9-1.2,10.7,1.1c4.2,2.5,3.3,8.9,3.3,8.9l2.2,2.2
			c0,0,0-5.5,2.2-7.8c0,0,1.4-9.4-6-14.9c2,2.7,2.9,6.1,2.3,9.5C35.4,158.3,31.2,163.8,24.1,163.5z"/>
		<path class="st0" d="M43.2,172.7L43.2,172.7c-1.3,0-2.3,1-2.3,2.3c0,0.1,0,0.2,0,0.3l0.6,5.1c0.1,0.7,0.6,1.2,1.3,1.2l0,0
			c0.6,0,1.1-0.4,1.3-1l1.3-5c0.3-1.2-0.4-2.5-1.7-2.8C43.5,172.7,43.4,172.7,43.2,172.7z"/>
		<polygon class="st0" points="480.1,87.4 490.1,78.5 490.1,70.8 470.1,70.8 470.1,78.5 		"/>
		<path class="st8" d="M451.3,86.5v8.7c0,1.2,1,2.2,2.2,2.2l0,0h53.2c1.2,0,2.2-1,2.2-2.2l0,0v-8.7c0-2.1-1.4-3.8-3.4-4.3l-13.7-3.2
			c-0.4-0.1-0.7-0.3-1-0.6l-10.7,6.8L469,78.7c-0.2,0.1-0.4,0.2-0.6,0.2l-13.7,3.2C452.7,82.6,451.3,84.4,451.3,86.5z"/>
		<path class="st2" d="M490.1,70.8h-20v1.4c0,0,7.4,11.3,20,6.8V70.8z"/>
		<path class="st3" d="M494.5,45.3h-28.8l1,21.3c0.1,2,1.1,3.8,2.6,5l4.6,3.5c1.2,0.9,2.6,1.3,4,1.3h4.4c1.4,0,2.8-0.5,4-1.3
			l4.6-3.4c1.6-1.2,2.6-3,2.6-5L494.5,45.3L494.5,45.3z"/>
		<path class="st0" d="M486.8,53v13.3c0,5.5-4.4,10-6.6,10h2.2c1.4,0,2.8-0.5,4-1.3l4.6-3.4c1.6-1.2,2.6-3,2.6-5l1-21.3h-23.8
			c1.6,3.3,8.2,4.4,12.7,4.4C485.2,49.8,486.6,51.2,486.8,53z"/>
		<path class="st9" d="M461.2,94.3v3.1h-7.8c-1.2,0-2.2-1-2.2-2.2l0,0v-8.7c0-1,0.4-2,1-2.8l7.2,6.4
			C460.6,91.2,461.3,92.7,461.2,94.3z"/>
		<path class="st9" d="M498.9,94.3v3.1h7.8c1.2,0,2.2-1,2.2-2.2l0,0v-8.7c0-1-0.4-2-1-2.8l-7.2,6.4
			C499.6,91.2,498.9,92.7,498.9,94.3z"/>
		<polygon class="st4" points="478,87.4 482.2,87.4 482.9,97.4 477.3,97.4 		"/>
		<path class="st10" d="M477.3,85.2v0.6c0,1.5,1.2,2.7,2.7,2.7h0.2c1.5,0,2.7-1.2,2.7-2.7c0,0,0,0,0,0v-0.6H477.3z"/>
		<path class="st9" d="M491.9,76.3l1.5,2.3L488.6,89c-0.3,0.7-1.2,1-1.9,0.7c-0.1-0.1-0.2-0.1-0.3-0.2c-2-1.6-4.1-3.1-6.3-4.3
			l10.1-9.2c0.5-0.4,1.2-0.3,1.6,0.1C491.8,76.2,491.9,76.2,491.9,76.3z"/>
		<path class="st9" d="M468.3,76.3l-1.5,2.3l4.8,10.5c0.3,0.7,1.2,1,1.9,0.7c0.1-0.1,0.2-0.1,0.3-0.2c2-1.6,4.1-3.1,6.3-4.3L470,76
			c-0.5-0.4-1.2-0.4-1.6,0.1C468.4,76.1,468.3,76.2,468.3,76.3z"/>
		<path class="st11" d="M462.4,51.9c2.8,3.1,2.2,7.8,2.2,7.8l1.8-2.8c0.2-0.3,0.3-0.7,0.4-1.1c0.1-2.1,0.8-9.6,5.5-10.5l1-7.3
			C461.5,33.5,462.4,51.9,462.4,51.9z"/>
		<path class="st3" d="M465.8,56.3L465.8,56.3c1.3,0,2.3,1.1,2.3,2.3c0,0.1,0,0.2,0,0.2l-0.6,5.1c-0.1,0.7-0.6,1.2-1.3,1.2l0,0
			c-0.6,0-1.1-0.4-1.3-1l-1.3-5c-0.3-1.2,0.5-2.5,1.7-2.8C465.4,56.4,465.6,56.3,465.8,56.3z"/>
		<path class="st12" d="M480.1,33c-8.6-0.2-12,4.5-12.2,6.7c-0.5,4.3,2.1,7.8,11.4,7.8c3.5,0,6.9-1.2,10.7,1.1
			c4.2,2.5,3.3,8.9,3.3,8.9l2.2,2.2c0,0,0-5.5,2.2-7.8c0,0,1.4-9.4-6-14.9l1.6-1.1C490.1,34.2,483.6,33.1,480.1,33z"/>
		<path class="st13" d="M475.3,47.2c1.3,0.2,2.7,0.3,4,0.3c3.5,0,6.9-1.2,10.7,1.1c4.2,2.5,3.3,8.9,3.3,8.9l2.2,2.2
			c0,0,0-5.5,2.2-7.8c0,0,1.4-9.4-6-14.9c2,2.7,2.9,6.1,2.3,9.5C486.7,42,482.5,47.4,475.3,47.2z"/>
		<path class="st0" d="M494.4,56.3L494.4,56.3c-1.3,0-2.3,1-2.3,2.3c0,0.1,0,0.2,0,0.3l0.6,5.1c0.1,0.7,0.6,1.2,1.3,1.2l0,0
			c0.6,0,1.1-0.4,1.3-1l1.3-5c0.3-1.2-0.4-2.5-1.7-2.8C494.8,56.4,494.6,56.3,494.4,56.3z"/>
		<path class="st9" d="M464.6,97.4h10c0-1.2-1-2.2-2.2-2.2l0,0h-5.5C465.6,95.1,464.6,96.1,464.6,97.4
			C464.6,97.4,464.6,97.4,464.6,97.4z"/>
		<path class="st6" d="M9,79.8c0,0.7,0.4,1.4,1,1.8c5.7,3.3,12.2,5,18.8,5c6.6,0,13.1-1.7,18.8-5c0.6-0.4,1-1.1,1-1.8
			c0.1-19.7,2.6-46.9-19.8-46.9S8.9,60.1,9,79.8z"/>
		<path class="st7" d="M23.2,47l5.6,39.6c6.6,0,13.1-1.7,18.8-5c0.6-0.4,1-1.1,1-1.8C48.7,60.5,51,34.1,30.2,33"/>
		<path class="st6" d="M9,79.8c0,0.7,0.4,1.4,1,1.8c5.7,3.3,12.2,5,18.8,5L23.2,47c7.4,3.1,11.9,0,19.3,1.2c0,0-0.9-15.4-13.6-15.4
			C6.5,32.9,8.9,60.1,9,79.8z"/>
		<path class="st5" d="M10.1,81.6c3.1,1.8,6.4,3.1,9.9,3.9l0,0c-2.7-2.3-11-18.8-8.1-34.3c2.8-4.2,5.7-4.2,8.5-9.9
			c1.1-2.3,0.7-5.7,0.5-6.9C7.1,40.4,9,62.9,9,79.8C9,80.6,9.4,81.3,10.1,81.6z"/>
		<path class="st0" d="M4.8,88v5.7c0,1.6,1.3,2.8,2.8,2.8c0,0,0,0,0,0H50c1.6,0,2.8-1.3,2.8-2.8l0,0V88c0-1.7-1-3.3-2.6-3.9
			l-12.6-5.2c-1.1-0.4-1.7-1.5-1.7-2.6v-3.4H21.8v3.4c0,1.1-0.7,2.2-1.8,2.6L7.4,84.1C5.8,84.8,4.8,86.3,4.8,88z"/>
		<path class="st14" d="M4.8,88v5.7c0,1.6,1.3,2.8,2.8,2.8c0,0,0,0,0,0H50c1.6,0,2.8-1.3,2.8-2.8l0,0V88c0-1.7-1-3.3-2.6-3.9
			L38.1,79l-9.2,4l-9.2-4L7.4,84.1C5.8,84.8,4.8,86.3,4.8,88z"/>
		<path class="st2" d="M39.6,79.7l-2-0.8c-1.1-0.4-1.7-1.5-1.7-2.6v-3.4H21.8C21.8,72.8,24.5,83.5,39.6,79.7z"/>
		<path class="st15" d="M44.4,92.9v3.6H50c1.6,0,2.8-1.3,2.8-2.8l0,0V88c0-1.1-0.4-2.2-1.2-3L46,89.6C45,90.4,44.4,91.6,44.4,92.9z"
			/>
		<path class="st15" d="M7.6,96.5h5.7v-3.6c0-1.3-0.6-2.5-1.6-3.3L6,85.1c-0.8,0.8-1.2,1.8-1.2,2.9v5.7C4.8,95.2,6,96.5,7.6,96.5
			C7.6,96.5,7.6,96.5,7.6,96.5z"/>
		<path class="st15" d="M27.4,92.5V83h2.8v9.5c0,0.7-0.5,1.2-1.2,1.2h-0.4C28,93.7,27.4,93.1,27.4,92.5z"/>
		<path class="st15" d="M33.5,86.8c0.5,0.4,1.2,0.3,1.6-0.2c0,0,0,0,0-0.1l5-6.9l-1.6-2.4c-0.4-0.5-1.1-0.6-1.6-0.3
			c0,0-0.1,0-0.1,0.1l-8.1,6L33.5,86.8z"/>
		<path class="st15" d="M24.1,86.8c-0.5,0.4-1.2,0.3-1.6-0.2c0,0,0,0,0-0.1l-5-6.9l1.6-2.4c0.4-0.5,1.1-0.6,1.6-0.3
			c0,0,0.1,0,0.1,0.1l8.1,6L24.1,86.8z"/>
		<path class="st3" d="M14.8,54.7c0,0.7,0,1.4,0.1,2.1l1,9.9c0.2,1.9,1.2,3.5,2.9,4.4l8,4.5c1.3,0.7,2.8,0.7,4.1,0l8-4.5
			c1.6-0.9,2.7-2.6,2.9-4.4l0.9-8.3c0-11.3-13.9-5.7-20.9-12.7C20.4,48.5,15.3,51.1,14.8,54.7z"/>
		<path class="st0" d="M21.8,45.6c-0.1,0.2-0.2,0.4-0.3,0.6l0,0c-0.1,0.2-0.3,0.4-0.4,0.5c2.9,4.8,12.6,5,14.4,7.6
			c0.9,1.3-0.1,11.9-0.9,13.9C32.1,74.8,28,76,28,76l0,0c1,0.2,2,0.1,2.9-0.4l8-4.5c1.6-0.9,2.7-2.6,2.9-4.4l0.9-8.3
			C42.7,47,28.8,52.7,21.8,45.6z"/>
		<path class="st15" d="M16.1,96.1v0.4h8.5v-0.4c0-1.3-1.1-2.4-2.4-2.4c0,0,0,0,0,0h-3.7C17.2,93.7,16.1,94.8,16.1,96.1L16.1,96.1z"
			/>
		<ellipse class="st16" cx="177.6" cy="16.1" rx="28.6" ry="14.7"/>
		<ellipse class="st16" cx="177.6" cy="77.1" rx="28.6" ry="14.7"/>
		<ellipse class="st16" cx="177.6" cy="136.3" rx="28.6" ry="14.7"/>
		<ellipse class="st16" cx="177.6" cy="192.2" rx="28.6" ry="14.7"/>
		<ellipse class="st16" cx="331.7" cy="140.3" rx="28.6" ry="14.7"/>
		<ellipse class="st16" cx="253.5" cy="250.9" rx="28.6" ry="14.7"/>
		<text transform="matrix(1 0 0 1 119.32 46.26)" class="st17 st18">Consu</text>
		<text transform="matrix(1 0 0 1 151.78 46.26)" class="st17 st18">l</text>
		<text transform="matrix(1 0 0 1 154.55 46.26)" class="st17 st18">ta espectáculos</text>
		<text transform="matrix(1 0 0 1 8.13 25.04)" class="st17 st18">C</text>
		<text transform="matrix(1 0 0 1 15.34 25.04)" class="st17 st18">l</text>
		<text transform="matrix(1 0 0 1 18.09 25.04)" class="st17 st18">ientes</text>
		<text transform="matrix(1 0 0 1 0.82 140.25)" class="st17 st18 st19">T</text>
		<text transform="matrix(1 0 0 1 6.5 140.25)" class="st17 st18">aqu</text>
		<text transform="matrix(1 0 0 1 26.12 140.25)" class="st17 st18">i</text>
		<text transform="matrix(1 0 0 1 28.87 140.25)" class="st17 st18">l</text>
		<text transform="matrix(1 0 0 1 31.65 140.25)" class="st17 st18">le</text>
		<text transform="matrix(1 0 0 1 40.71 140.25)" class="st17 st18">r</text>
		<text transform="matrix(1 0 0 1 44.98 140.25)" class="st17 st18">os</text>
		<text transform="matrix(1 0 0 1 97.26 106.43)" class="st17 st18">Comp</text>
		<text transform="matrix(1 0 0 1 127.69 106.43)" class="st17 st18">r</text>
		<text transform="matrix(1 0 0 1 131.81 106.43)" class="st17 st18">ar ent</text>
		<text transform="matrix(1 0 0 1 163.21 106.43)" class="st17 st18">r</text>
		<text transform="matrix(1 0 0 1 167.33 106.43)" class="st17 st18">adas por internet</text>
		<text transform="matrix(1 0 0 1 100.94 166.74)" class="st17 st18">Comp</text>
		<text transform="matrix(1 0 0 1 131.37 166.74)" class="st17 st18">r</text>
		<text transform="matrix(1 0 0 1 135.49 166.74)" class="st17 st18">ar ent</text>
		<text transform="matrix(1 0 0 1 166.89 166.74)" class="st17 st18">r</text>
		<text transform="matrix(1 0 0 1 171.01 166.74)" class="st17 st18">adas en taqu</text>
		<text transform="matrix(1 0 0 1 239.74 166.74)" class="st17 st18">i</text>
		<text transform="matrix(1 0 0 1 242.49 166.74)" class="st17 st18">l</text>
		<text transform="matrix(1 0 0 1 245.27 166.74)" class="st17 st18">la</text>
		<text transform="matrix(1 0 0 1 112.48 223.28)" class="st17 st18">Comp</text>
		<text transform="matrix(1 0 0 1 142.91 223.28)" class="st17 st18">r</text>
		<text transform="matrix(1 0 0 1 147.18 223.28)" class="st17 st18">obar </text>
		<text transform="matrix(1 0 0 1 174.7 223.28)" class="st17 st18">v</text>
		<text transform="matrix(1 0 0 1 180.45 223.28)" class="st17 st18">a</text>
		<text transform="matrix(1 0 0 1 186.75 223.28)" class="st17 st18">l</text>
		<text transform="matrix(1 0 0 1 189.5 223.28)" class="st17 st18">idez tic</text>
		<text transform="matrix(1 0 0 1 226.57 223.28)" class="st17 st18">k</text>
		<text transform="matrix(1 0 0 1 232.44 223.28)" class="st17 st18">et</text>
		<text transform="matrix(1 0 0 1 287.47 170.81)" class="st17 st18">Dar de a</text>
		<text transform="matrix(1 0 0 1 332.98 170.81)" class="st17 st18">l</text>
		<text transform="matrix(1 0 0 1 335.75 170.81)" class="st17 st18">ta salas</text>
		<text transform="matrix(1 0 0 1 458.4 10.36)" class="st17 st18">Je</text>
		<text transform="matrix(1 0 0 1 469.71 10.36)" class="st17 st18">f</text>
		<text transform="matrix(1 0 0 1 473.42 10.36)" class="st17 st18">es de</text>
		<text transform="matrix(1 0 0 1 460.16 24.76)" class="st17 st18 st19">T</text>
		<text transform="matrix(1 0 0 1 465.84 24.76)" class="st17 st18">aqu</text>
		<text transform="matrix(1 0 0 1 485.46 24.76)" class="st17 st18">i</text>
		<text transform="matrix(1 0 0 1 488.21 24.76)" class="st17 st18">l</text>
		<text transform="matrix(1 0 0 1 490.99 24.76)" class="st17 st18">la</text>
		<ellipse class="st16" cx="331.7" cy="83.8" rx="28.6" ry="14.7"/>
		<text transform="matrix(1 0 0 1 264.97 114.15)" class="st17 st18">Dar de a</text>
		<text transform="matrix(1 0 0 1 310.48 114.15)" class="st17 st18">l</text>
		<text transform="matrix(1 0 0 1 313.25 114.15)" class="st17 st18">ta  espectaculos</text>
		<ellipse class="st16" cx="331.7" cy="25" rx="28.6" ry="14.7"/>
		<text transform="matrix(1 0 0 1 268.14 55.84)" class="st17 st18">Consu</text>
		<text transform="matrix(1 0 0 1 300.6 55.84)" class="st17 st18">l</text>
		<text transform="matrix(1 0 0 1 303.37 55.84)" class="st17 st18">tar estado </text>
		<text transform="matrix(1 0 0 1 360.64 55.84)" class="st17 st18">v</text>
		<text transform="matrix(1 0 0 1 366.52 55.84)" class="st17 st18">entas</text>
		<text transform="matrix(1 0 0 1 218.72 280.28)" class="st17 st18">I</text>
		<text transform="matrix(1 0 0 1 223.14 280.28)" class="st17 st18">niciar sesión</text>
		<polyline class="st16" points="143.7,74.8 67.7,74.8 101.7,16.1 143.7,16.1 		"/>
		<polyline class="st16" points="143.7,124.8 101.7,124.8 67.7,74.8 		"/>
		<polyline class="st16" points="143.7,146.8 101.7,146.8 67.7,192.2 143.7,192.2 		"/>
		<polyline class="st16" points="218.7,250.9 101.7,250.9 67.7,192.2 		"/>
		<polyline class="st16" points="368.7,140.3 405,140.3 439,83.8 368.7,83.8 		"/>
		<polyline class="st16" points="288.6,250.9 395,250.9 439,83.8 405,25 368.7,25 		"/>
	</g>
</g>
</svg>
