<?xml version="1.0" encoding="utf-8"?>
<!-- Generator: Adobe Illustrator 21.1.0, SVG Export Plug-In . SVG Version: 6.00 Build 0)  -->
<svg version="1.1" id="Capa_1" xmlns="http://www.w3.org/2000/svg" xmlns:xlink="http://www.w3.org/1999/xlink" x="0px" y="0px"
	 viewBox="0 0 212.4 212.4" style="enable-background:new 0 0 212.4 212.4;" xml:space="preserve">
<style type="text/css">
	.st0{fill:#B2ABAB;}
	.st1{fill:#334A5E;}
	.st2{fill:#FFFFFF;}
	.st3{fill:#E6E6E6;}
	.st4{fill:#89D6F7;}
	.st5{fill:#55BFE9;}
	.st6{fill:url(#SVGID_1_);}
	.st7{fill:#BFBEB9;}
	.st8{fill:#E56353;}
	.st9{fill:#D15241;}
	.st10{fill:#64798A;}
</style>
<title>img2</title>
<path class="st0" d="M212.4,150.4V31.6c0.1-3.8-3-6.9-6.8-7c-0.1,0-0.1,0-0.2,0H11.5c-4.8,0-8.7,3.9-8.7,8.8V167
	c0,4.8,3.9,8.7,8.7,8.7h55.9v23.6H46v13.1h122.8v-13.1h-21v-23.6h55.9c4.8,0,8.7-3.9,8.7-8.7L212.4,150.4L212.4,150.4z"/>
<path class="st1" d="M202.6,21.9H8.7c-4.8,0-8.7,3.9-8.7,8.7v117h209.6V28.8c0-3.8-3-6.9-6.8-7C202.8,21.9,202.7,21.9,202.6,21.9z"
	/>
<path class="st2" d="M0,147.6v16.6c0,4.8,3.9,8.7,8.7,8.7h192.2c4.8,0,8.7-3.9,8.7-8.7v-16.6C209.6,147.6,0,147.6,0,147.6z"/>
<circle class="st3" cx="104.8" cy="160.3" r="4.8"/>
<rect x="64.6" y="173" class="st3" width="80.4" height="23.6"/>
<rect x="43.2" y="196.6" class="st2" width="122.7" height="13.1"/>
<polygon class="st4" points="184.3,35 171.2,137.6 195.7,137.6 195.7,35 "/>
<polygon class="st4" points="14,35 14,137.6 38.4,137.6 25.3,35 "/>
<polygon class="st4" points="171.2,35 171.2,137.6 184.3,35 "/>
<polygon class="st5" points="171.2,35 171.2,137.6 184.3,35 "/>
<polygon class="st4" points="25.3,35 38.4,137.6 38.4,35 "/>
<polygon class="st5" points="25.3,35 38.4,137.6 38.4,35 "/>
<g>
	
		<linearGradient id="SVGID_1_" gradientUnits="userSpaceOnUse" x1="104.8" y1="76.5" x2="104.8" y2="214" gradientTransform="matrix(1 0 0 -1 0 214)">
		<stop  offset="0.6844" style="stop-color:#FFFFFF"/>
		<stop  offset="1" style="stop-color:#F2F2F2"/>
	</linearGradient>
	<path class="st6" d="M144.1,0h-97c-4.8,0-8.7,3.9-8.7,8.7v128.8h132.8V26.6L144.1,0z"/>
	<path class="st7" d="M152.8,26.6h18.3L144.1,0v17.9C144.1,22.7,148,26.6,152.8,26.6z"/>
	<path class="st8" d="M131.6,78.9c-0.3,14.7-12.3,26.6-27.1,26.6S77.7,93.6,77.4,78.9H62.8V84c0,1,0.8,1.8,1.8,1.8h5
		c0.9,4.3,2.6,8.4,5,12l-3.5,3.5c-0.7,0.7-0.7,1.8,0,2.5l8,8c0.7,0.7,1.8,0.7,2.5,0l3.5-3.5c3.6,2.3,7.6,4.1,12,5v5
		c0,1,0.8,1.8,1.8,1.8h11.3c1,0,1.8-0.8,1.8-1.8v-5c4.3-0.9,8.4-2.6,12-5l3.5,3.5c0.7,0.7,1.8,0.7,2.5,0l8-8c0.7-0.7,0.7-1.8,0-2.5
		l-3.5-3.5c2.3-3.6,4.1-7.6,5-12h5c1,0,1.8-0.8,1.8-1.8v-5.2L131.6,78.9L131.6,78.9z"/>
	<path class="st9" d="M129.8,78.9c-0.3,13.7-11.5,24.8-25.3,24.8s-25-11.1-25.3-24.8h-2.8c0.3,15.3,12.8,27.6,28.1,27.6
		c15.4,0,27.9-12.3,28.1-27.6C132.6,78.9,129.8,78.9,129.8,78.9z"/>
	<path class="st9" d="M89.9,78.9c0.3,7.9,6.7,14.2,14.6,14.2s14.4-6.3,14.6-14.2H89.9z"/>
	<g>
		<rect x="48.5" y="74.2" class="st10" width="112.8" height="4.6"/>
		<path class="st10" d="M48.5,51.7v-5.4L68.7,37v4.9l-15.1,6.8v0.5l15.1,7v4.9L48.5,51.7z"/>
		<path class="st10" d="M161.3,46.3v5.4L141,61v-4.9l15.1-7v-0.5L141,41.8V37L161.3,46.3z"/>
		<g>
			<path class="st10" d="M79.7,35.8V51c0,4.6,1.4,6.9,3.7,6.9c2.5,0,3.8-2.2,3.8-6.9V35.8h4.7v14.9c0,8.2-3.2,12.1-8.6,12.1
				c-5.2,0-8.2-3.7-8.2-12.2V35.8H79.7z"/>
			<path class="st10" d="M113.4,52.2c-0.1-3.2-0.2-7.1-0.2-10.9h-0.1c-0.7,3.4-1.5,7.2-2.3,10.3l-2.5,10.4h-3.6l-2.2-10.3
				c-0.7-3.2-1.3-6.9-1.9-10.4h-0.1c-0.1,3.6-0.2,7.7-0.3,11l-0.4,10.1h-4.3l1.3-26.6h6.2l2,8.9c0.7,3.1,1.3,6.4,1.7,9.5h0.1
				c0.6-3.1,1.3-6.6,2-9.5l2.2-8.8h6.1l1.1,26.6h-4.5L113.4,52.2z"/>
			<path class="st10" d="M121.9,35.8h4.7v21.5h8.2v5h-12.9V35.8z"/>
		</g>
	</g>
</g>
</svg>
