<?xml version="1.0" encoding="utf-8"?>
<!-- Generator: Adobe Illustrator 21.1.0, SVG Export Plug-In . SVG Version: 6.00 Build 0)  -->
<svg version="1.1" id="Capa_1" xmlns="http://www.w3.org/2000/svg" xmlns:xlink="http://www.w3.org/1999/xlink" x="0px" y="0px"
	 viewBox="0 0 471.3 666.3" style="enable-background:new 0 0 471.3 666.3;" xml:space="preserve">
<style type="text/css">
	.st0{fill:#B6C700;stroke:#000000;stroke-miterlimit:10;}
	.st1{font-family:'Verdana';}
	.st2{font-size:11.1068px;}
	.st3{fill:#FF9600;stroke:#000000;stroke-miterlimit:10;}
	.st4{fill:none;stroke:#000000;stroke-miterlimit:10;}
	.st5{fill:#FFFFFF;stroke:#191919;stroke-miterlimit:10;}
</style>
<title>img8</title>
<g>
	<path class="st0" d="M142.3,247.5l-95.6-49.2l95.6-49.2l95.6,49.2L142.3,247.5z"/>
	<rect x="22" y="56" class="st0" width="240.5" height="18.7"/>
	<rect x="22" y="102.7" class="st0" width="240.5" height="18.7"/>
	<text transform="matrix(1 0 0 1 60.5604 68.4692)" class="st1 st2">Leer la pregunta o enunciado</text>
	<path class="st3" d="M182.7,14.7c0,7.5-6.1,13.6-13.6,13.6h-53.6c-7.5,0-13.6-6.1-13.6-13.6l0,0c0-7.5,6.1-13.6,13.6-13.6h53.6
		C176.6,1.1,182.7,7.2,182.7,14.7L182.7,14.7z"/>
	<text transform="matrix(1 0 0 1 127.1219 17.7896)" class="st1 st2">Inicio</text>
	<text transform="matrix(1 0 0 1 82.8768 193.667)"><tspan x="0" y="0" class="st1 st2">La soluci贸n implica la</tspan><tspan x="-15.3" y="11.1" class="st1 st2">construcci贸n de diagramas</tspan></text>
	<g>
		<path d="M142.3,56l-6.5-6.3h13L142.3,56z"/>
		<line class="st4" x1="142.3" y1="52.8" x2="142.3" y2="28.3"/>
	</g>
	<g>
		<path d="M142.3,102.7l-6.5-6.3h13L142.3,102.7z"/>
		<line class="st4" x1="142.3" y1="99.6" x2="142.3" y2="75"/>
	</g>
	<g>
		<path d="M142.3,149.1l-6.5-6.3h13L142.3,149.1z"/>
		<line class="st4" x1="142.3" y1="146" x2="142.3" y2="121.4"/>
	</g>
	<g>
		<path d="M362.3,284.2l-6.5-6.3h13L362.3,284.2z"/>
		<line class="st4" x1="362.3" y1="281.1" x2="362.3" y2="256.5"/>
	</g>
	<text transform="matrix(1 0 0 1 40.8143 115.1841)" class="st1 st2">Identificar Diagrama UML que aplica</text>
	<rect x="22" y="546.2" class="st0" width="240.5" height="18.7"/>
	<text transform="matrix(1 0 0 1 48.16 558.6855)" class="st1 st2">Copiar soluci贸n en el archivo final</text>
	<path d="M362.3,223.7l-6.5-6.3h13L362.3,223.7z"/>
	<path d="M142.3,485.6l-6.5-6.3h13L142.3,485.6z"/>
	<path d="M142.3,456.8l6.3-6.5v13L142.3,456.8z"/>
	<line class="st4" x1="142.3" y1="482.5" x2="142.3" y2="247.5"/>
	<g>
		<path d="M142.3,546.2l-6.5-6.3h13L142.3,546.2z"/>
		<line class="st4" x1="142.3" y1="543.1" x2="142.3" y2="518.5"/>
	</g>
	<rect x="22" y="592.6" class="st0" width="240.5" height="18.7"/>
	<text transform="matrix(1 0 0 1 97.3245 605.1113)" class="st1 st2">Guardar archivo</text>
	<g>
		<path d="M142.3,592.6l-6.5-6.3h13L142.3,592.6z"/>
		<line class="st4" x1="142.3" y1="589.5" x2="142.3" y2="564.9"/>
	</g>
	<rect x="22" y="485.6" class="st0" width="240.5" height="32.9"/>
	<text transform="matrix(1 0 0 1 39.8851 499.6377)"><tspan x="0" y="0" class="st1 st2">Presentar soluci贸n aplicando normas</tspan><tspan x="57.8" y="11.1" class="st1 st2">y convenciones </tspan></text>
	<rect x="275.3" y="223.7" class="st0" width="173.9" height="32.9"/>
	<text transform="matrix(1 0 0 1 303.1058 237.6641)"><tspan x="0" y="0" class="st1 st2">Identificar elementos</tspan><tspan x="26.3" y="11.1" class="st1 st2">individuales</tspan></text>
	<rect x="275.3" y="284.2" class="st0" width="173.9" height="32.9"/>
	<text transform="matrix(1 0 0 1 311.3948 298.2227)"><tspan x="0" y="0" class="st1 st2">Asignar relaciones</tspan><tspan x="5.4" y="11.1" class="st1 st2">entre elementos</tspan></text>
	<g>
		<path d="M362.3,344.8l-6.5-6.3h13L362.3,344.8z"/>
		<line class="st4" x1="362.3" y1="341.6" x2="362.3" y2="317.1"/>
	</g>
	<rect x="275.3" y="344.8" class="st0" width="173.9" height="32.9"/>
	<text transform="matrix(1 0 0 1 303.0325 358.7813)"><tspan x="0" y="0" class="st1 st2">Validar diagrama con</tspan><tspan x="30.8" y="11.1" class="st1 st2">enunciado</tspan></text>
	<g>
		<path d="M362.3,405.3l-6.5-6.3h13L362.3,405.3z"/>
		<line class="st4" x1="362.3" y1="402.2" x2="362.3" y2="377.7"/>
	</g>
	<rect x="275.3" y="405.3" class="st0" width="173.9" height="32.9"/>
	<text transform="matrix(1 0 0 1 303.0325 419.3389)"><tspan x="0" y="0" class="st1 st2">Validar diagrama con</tspan><tspan x="14" y="11.1" class="st1 st2">otros diagramas</tspan></text>
	<g>
		<path d="M142.3,639.1l-6.5-6.3h13L142.3,639.1z"/>
		<line class="st4" x1="142.3" y1="635.9" x2="142.3" y2="611.4"/>
	</g>
	<g>
		<path class="st3" d="M182.7,652.7c0,7.5-6.1,13.6-13.6,13.6h-53.6c-7.5,0-13.6-6.1-13.6-13.6l0,0c0-7.5,6.1-13.6,13.6-13.6h53.6
			C176.6,639,182.7,645.1,182.7,652.7L182.7,652.7z"/>
		<text transform="matrix(1 0 0 1 132.6024 655.7861)" class="st1 st2">FIN</text>
	</g>
	<polyline class="st4" points="362.3,217.4 362.3,198.3 237.9,198.3 	"/>
	<polyline class="st4" points="362.3,437.8 362.3,456.8 143.5,456.8 	"/>
	<g>
		<circle class="st5" cx="142.3" cy="338.5" r="13.4"/>
		<text transform="matrix(1 0 0 1 133.7601 342.71)" class="st1 st2">NO</text>
	</g>
	<g>
		<circle class="st5" cx="295.9" cy="198.3" r="13.4"/>
		<text transform="matrix(1 0 0 1 289.7962 201.4414)" class="st1 st2">SI</text>
	</g>
</g>
</svg>
