<?xml version="1.0" encoding="utf-8"?>
<!-- Generator: Adobe Illustrator 21.1.0, SVG Export Plug-In . SVG Version: 6.00 Build 0)  -->
<svg version="1.1" id="Capa_1" xmlns="http://www.w3.org/2000/svg" xmlns:xlink="http://www.w3.org/1999/xlink" x="0px" y="0px"
	 viewBox="0 0 125.3 158.6" style="enable-background:new 0 0 125.3 158.6;" xml:space="preserve">
<style type="text/css">
	.st0{opacity:0.2;}
	.st1{fill:#FFFFFF;}
</style>
<title>logo</title>
<path id="XMLID_403_" class="st0" d="M125.3,79.6c0-49.5-28.5-79.3-28.5-79.3H0.2v158.6h96.6C96.7,158.9,125.3,129.1,125.3,79.6z"/>
<g id="XMLID_401_">
	<path class="st1" d="M125.1,79.6c0-29.5-13.5-56.8-36.5-79.3H0v158.6h88.6C111.6,136.4,125.1,109.1,125.1,79.6z"/>
</g>
<g id="XMLID_59_">
	<path id="XMLID_400_" d="M59.3,42.3c4.5,0,8.2,3.7,8.2,8.3s-3.7,8.3-8.2,8.3s-8.2-3.7-8.2-8.3S54.7,42.3,59.3,42.3"/>
	<path id="XMLID_382_" d="M29.3,69L29.3,69v0.3c0,0.4,0.2,0.7,0.7,1c0.5,0.2,1.2,0.3,2.3,0.3c0.8,0,1.4-0.1,1.8-0.3
		c0.4-0.2,0.7-0.4,0.7-0.7c0-0.5-0.9-0.8-2.6-1.1c-0.2,0-0.4-0.1-0.5-0.1s-0.3,0-0.5-0.1c-2.8-0.5-4.5-0.9-5.3-1.5
		c-0.4-0.3-0.7-0.6-0.9-0.9c-0.2-0.4-0.3-0.8-0.3-1.2c0-1.1,0.6-1.9,1.9-2.5s3.1-0.8,5.6-0.8c2.4,0,4.2,0.3,5.4,0.8s1.7,1.3,1.7,2.4
		v0.1h-4.6l0,0c0-0.4-0.2-0.7-0.7-0.9c-0.5-0.2-1.1-0.3-2-0.3c-0.7,0-1.2,0.1-1.6,0.2c-0.4,0.1-0.6,0.3-0.6,0.6c0,0.5,1,0.8,3,1.2
		c0.4,0.1,0.7,0.1,0.9,0.1c1.4,0.2,2.4,0.4,3,0.6s1.1,0.4,1.6,0.6c0.5,0.3,0.9,0.6,1.1,1c0.3,0.4,0.4,0.9,0.4,1.3
		c0,1.1-0.7,2-2.1,2.6c-1.4,0.6-3.4,0.9-6,0.9s-4.4-0.3-5.6-0.9s-1.7-1.5-1.7-2.8V69H29.3z M41.9,72.6v-11H55V64h-8.2v1.7h7.5V68
		h-7.5v2.1h8.5v2.4L41.9,72.6L41.9,72.6z M57.3,72.6v-11h6.2l6.6,7.4v-7.4h4.7v11h-6.4L62,65.2v7.4H57.3z M87.5,68.2l-2.3-4l-2.5,4
		H87.5z M80,72.6h-4.9l7.6-11h5.4l7.2,11h-5.5l-1.1-2h-7.6L80,72.6z"/>
	<path id="XMLID_379_" d="M35.3,111.3l-4.4-4.1L44.3,84c0.7-1.3-0.2-2.8-1.6-2.8H20.8v-5.8H56L35.3,111.3z"/>
	<path id="XMLID_378_" d="M82.8,111.3l4.4-4.1L73.9,84c-0.7-1.3,0.2-2.8,1.6-2.8h21.8v-5.8H62.2L82.8,111.3z"/>
	<path id="XMLID_375_" d="M59,81.5L59,81.5l19.8,32.6l-5.3,2.7L60.9,95.5c-0.8-1.3-2.6-1.3-3.3,0c-4.3,7.2-12.7,21.4-12.7,21.4
		l-5.1-2.5C39.7,114.3,58,83.3,59,81.5"/>
</g>
</svg>
