<?xml version="1.0" encoding="UTF-8" standalone="no"?>
<!-- Created with Inkscape (http://www.inkscape.org/) -->

<svg
   width="160.38113mm"
   height="92.919296mm"
   viewBox="0 0 160.38113 92.919296"
   version="1.1"
   id="svg5"
   inkscape:version="1.2.2 (732a01da63, 2022-12-09)"
   sodipodi:docname="clasificacion de procesos.svg"
   xmlns:inkscape="http://www.inkscape.org/namespaces/inkscape"
   xmlns:sodipodi="http://sodipodi.sourceforge.net/DTD/sodipodi-0.dtd"
   xmlns="http://www.w3.org/2000/svg"
   xmlns:svg="http://www.w3.org/2000/svg">
  <sodipodi:namedview
     id="namedview7"
     pagecolor="#ffffff"
     bordercolor="#000000"
     borderopacity="0.25"
     inkscape:showpageshadow="2"
     inkscape:pageopacity="0.0"
     inkscape:pagecheckerboard="0"
     inkscape:deskcolor="#d1d1d1"
     inkscape:document-units="mm"
     showgrid="false"
     inkscape:zoom="0.52724989"
     inkscape:cx="-265.52874"
     inkscape:cy="125.17784"
     inkscape:window-width="1920"
     inkscape:window-height="1017"
     inkscape:window-x="-8"
     inkscape:window-y="-8"
     inkscape:window-maximized="1"
     inkscape:current-layer="layer1" />
  <defs
     id="defs2" />
  <g
     inkscape:label="Capa 1"
     inkscape:groupmode="layer"
     id="layer1"
     transform="translate(-7.5093501,-36.763183)">
    <text
       xml:space="preserve"
       style="font-size:11.25px;font-family:'Neilvard Two';-inkscape-font-specification:'Neilvard Two, Normal';white-space:pre;inline-size:52.9215;fill:#212121;stroke-width:0.545999;stroke-linecap:round;stroke-linejoin:round"
       x="31.048386"
       y="70.258064"
       id="text236" />
    <text
       xml:space="preserve"
       style="font-style:normal;font-variant:normal;font-weight:normal;font-stretch:normal;font-size:7.96266px;font-family:'Segoe UI';-inkscape-font-specification:'Segoe UI, Normal';font-variant-ligatures:normal;font-variant-caps:normal;font-variant-numeric:normal;font-variant-east-asian:normal;letter-spacing:-2.73579px;writing-mode:tb-rl;fill:#212121;stroke-width:0.386454;stroke-linecap:round;stroke-linejoin:round"
       x="9.7566242"
       y="47.824997"
       id="text1954"
       inkscape:export-filename="text1954.png"
       inkscape:export-xdpi="158.37"
       inkscape:export-ydpi="158.37"><tspan
         sodipodi:role="line"
         id="tspan1952"
         style="writing-mode:vertical-lr;direction:ltr;text-orientation:upright;stroke-width:0.386455"
         x="9.7566242"
         y="47.824997"
         dy="0"
         dx="0">Necesidad</tspan></text>
    <g
       id="rect3460"
       transform="matrix(0.30451447,0,0,0.30451447,13.592951,43.047356)">
      <path
         style="color:#000000;fill:#000000;stroke-linecap:round;stroke-linejoin:round;-inkscape-stroke:none"
         d="m 40.224609,37.089844 c -0.476054,0.196626 -0.786734,0.660719 -0.787109,1.175781 v 3.367187 H 14.552734 c -0.703371,-1.71e-4 -1.273609,0.570067 -1.273437,1.273438 v 9.910156 c -1.72e-4,0.703371 0.570066,1.273609 1.273437,1.273438 H 39.4375 v 3.365234 c -5.51e-4,1.13485 1.371782,1.703265 2.173828,0.900391 l 9.595703,-9.59375 c 0.497393,-0.497222 0.497393,-1.30356 0,-1.800782 l -9.595703,-9.59375 c -0.36367,-0.364279 -0.910916,-0.473728 -1.386719,-0.277343 z"
         id="path3568"
         sodipodi:nodetypes="cccccccccccccc" />
    </g>
    <path
       id="rect4296"
       style="fill:#212121;stroke:none;stroke-width:1.80204;stroke-linecap:round;stroke-linejoin:round;stroke-dasharray:none;stroke-opacity:1"
       d="m 23.864442,49.76377 7.858026,7.858392 -7.858392,7.858392 h 39.766721 0.102778 l 7.858388,-7.858392 -7.85802,-7.858392 h -0.103146 z" />
    <path
       id="path4309"
       style="fill:#212121;stroke:none;stroke-width:1.80204;stroke-linecap:round;stroke-linejoin:round;stroke-dasharray:none;stroke-opacity:1"
       d="m 65.59841,49.76377 7.858029,7.858392 -7.858395,7.858392 h 39.766716 0.10278 l 7.85839,-7.858392 -7.85802,-7.858392 h -0.10315 z" />
    <path
       id="path4311"
       style="fill:#212121;stroke:none;stroke-width:1.80204;stroke-linecap:round;stroke-linejoin:round;stroke-dasharray:none;stroke-opacity:1"
       d="m 23.864442,77.228031 7.858026,7.858392 -7.858392,7.858395 h 32.275919 0.102779 l 7.858388,-7.858395 -7.85802,-7.858392 h -0.103147 z"
       sodipodi:nodetypes="ccccccccc" />
    <path
       id="path4313"
       style="fill:#212121;stroke:none;stroke-width:1.80204;stroke-linecap:round;stroke-linejoin:round;stroke-dasharray:none;stroke-opacity:1"
       d="m 58.56868,77.228031 7.858029,7.858392 -7.858395,7.858395 h 39.766719 0.102779 l 7.858388,-7.858395 -7.85802,-7.858392 h -0.103147 z" />
    <path
       id="path4315"
       style="fill:#212121;stroke:none;stroke-width:1.80204;stroke-linecap:round;stroke-linejoin:round;stroke-dasharray:none;stroke-opacity:1"
       d="m 23.864442,103.93172 7.858026,7.8584 -7.858392,7.85839 h 39.766721 0.102778 l 7.858388,-7.85839 -7.85802,-7.8584 h -0.103146 z" />
    <path
       id="path4317"
       style="fill:#212121;stroke:none;stroke-width:1.80204;stroke-linecap:round;stroke-linejoin:round;stroke-dasharray:none;stroke-opacity:1"
       d="m 65.59841,103.93172 7.858029,7.8584 -7.858395,7.85839 h 39.766716 0.10278 l 7.85839,-7.85839 -7.85802,-7.8584 h -0.10315 z" />
    <text
       xml:space="preserve"
       style="font-style:normal;font-variant:normal;font-weight:normal;font-stretch:normal;font-size:4.95667px;font-family:'Segoe UI';-inkscape-font-specification:'Segoe UI, Normal';font-variant-ligatures:normal;font-variant-caps:normal;font-variant-numeric:normal;font-variant-east-asian:normal;writing-mode:tb-rl;fill:#ffffff;stroke:none;stroke-width:1.12175;stroke-linecap:round;stroke-linejoin:round;stroke-dasharray:none;stroke-opacity:1"
       x="32.88509"
       y="59.42767"
       id="text4427"><tspan
         sodipodi:role="line"
         id="tspan4425"
         style="writing-mode:lr-tb;stroke-width:1.12175"
         x="32.88509"
         y="59.42767">Coordinacion</tspan></text>
    <text
       xml:space="preserve"
       style="font-style:normal;font-variant:normal;font-weight:normal;font-stretch:normal;font-size:4.95667px;font-family:'Segoe UI';-inkscape-font-specification:'Segoe UI, Normal';font-variant-ligatures:normal;font-variant-caps:normal;font-variant-numeric:normal;font-variant-east-asian:normal;writing-mode:tb-rl;fill:#ffffff;stroke:none;stroke-width:1.12175;stroke-linecap:round;stroke-linejoin:round;stroke-dasharray:none;stroke-opacity:1"
       x="76.892426"
       y="56.32975"
       id="text4431"><tspan
         sodipodi:role="line"
         id="tspan4429"
         style="writing-mode:lr-tb;stroke-width:1.12175"
         x="76.892426"
         y="56.32975">Area de </tspan><tspan
         sodipodi:role="line"
         style="writing-mode:lr-tb;stroke-width:1.12175"
         x="76.892426"
         y="62.525589"
         id="tspan4451">Admisiones</tspan></text>
    <text
       xml:space="preserve"
       style="font-style:normal;font-variant:normal;font-weight:normal;font-stretch:normal;font-size:4.95667px;font-family:'Segoe UI';-inkscape-font-specification:'Segoe UI, Normal';font-variant-ligatures:normal;font-variant-caps:normal;font-variant-numeric:normal;font-variant-east-asian:normal;writing-mode:tb-rl;fill:#ffffff;stroke:none;stroke-width:1.12175;stroke-linecap:round;stroke-linejoin:round;stroke-dasharray:none;stroke-opacity:1"
       x="36.83448"
       y="110.39847"
       id="text4435"><tspan
         sodipodi:role="line"
         id="tspan4433"
         style="writing-mode:lr-tb;stroke-width:1.12175"
         x="36.83448"
         y="110.39847">Area</tspan><tspan
         sodipodi:role="line"
         style="writing-mode:lr-tb;stroke-width:1.12175"
         x="36.83448"
         y="116.59431"
         id="tspan4441">Financiera</tspan></text>
    <text
       xml:space="preserve"
       style="font-style:normal;font-variant:normal;font-weight:normal;font-stretch:normal;font-size:4.95667px;font-family:'Segoe UI';-inkscape-font-specification:'Segoe UI, Normal';font-variant-ligatures:normal;font-variant-caps:normal;font-variant-numeric:normal;font-variant-east-asian:normal;writing-mode:tb-rl;fill:#ffffff;stroke:none;stroke-width:1.12175;stroke-linecap:round;stroke-linejoin:round;stroke-dasharray:none;stroke-opacity:1"
       x="79.668457"
       y="113.49639"
       id="text4439"><tspan
         sodipodi:role="line"
         id="tspan4437"
         style="writing-mode:lr-tb;stroke-width:1.12175"
         x="79.668457"
         y="113.49639">Recursos</tspan></text>
    <text
       xml:space="preserve"
       style="font-style:normal;font-variant:normal;font-weight:normal;font-stretch:normal;font-size:4.95667px;font-family:'Segoe UI';-inkscape-font-specification:'Segoe UI, Normal';font-variant-ligatures:normal;font-variant-caps:normal;font-variant-numeric:normal;font-variant-east-asian:normal;writing-mode:tb-rl;fill:#ffffff;stroke:none;stroke-width:1.12175;stroke-linecap:round;stroke-linejoin:round;stroke-dasharray:none;stroke-opacity:1"
       x="34.879375"
       y="86.511642"
       id="text4445"><tspan
         sodipodi:role="line"
         id="tspan4443"
         style="writing-mode:lr-tb;stroke-width:1.12175"
         x="34.879375"
         y="86.511642">Admisiones</tspan></text>
    <text
       xml:space="preserve"
       style="font-style:normal;font-variant:normal;font-weight:normal;font-stretch:normal;font-size:4.95667px;font-family:'Segoe UI';-inkscape-font-specification:'Segoe UI, Normal';font-variant-ligatures:normal;font-variant-caps:normal;font-variant-numeric:normal;font-variant-east-asian:normal;writing-mode:tb-rl;fill:#ffffff;stroke:none;stroke-width:1.12175;stroke-linecap:round;stroke-linejoin:round;stroke-dasharray:none;stroke-opacity:1"
       x="71.060722"
       y="86.89193"
       id="text4449"><tspan
         sodipodi:role="line"
         id="tspan4447"
         style="writing-mode:lr-tb;stroke-width:1.12175"
         x="71.060722"
         y="86.89193">Matriculas</tspan></text>
    <g
       id="g4455"
       transform="matrix(0,0.2309874,-0.2309874,0,55.03824,63.863444)">
      <path
         style="color:#000000;fill:#000000;stroke-linecap:round;stroke-linejoin:round;-inkscape-stroke:none"
         d="m 40.224609,37.089844 c -0.476054,0.196626 -0.786734,0.660719 -0.787109,1.175781 v 3.367187 H 14.552734 c -0.703371,-1.71e-4 -1.273609,0.570067 -1.273437,1.273438 v 9.910156 c -1.72e-4,0.703371 0.570066,1.273609 1.273437,1.273438 H 39.4375 v 3.365234 c -5.51e-4,1.13485 1.371782,1.703265 2.173828,0.900391 l 9.595703,-9.59375 c 0.497393,-0.497222 0.497393,-1.30356 0,-1.800782 l -9.595703,-9.59375 c -0.36367,-0.364279 -0.910916,-0.473728 -1.386719,-0.277343 z"
         id="path4453"
         sodipodi:nodetypes="cccccccccccccc" />
    </g>
    <g
       id="g4459"
       transform="matrix(0,-0.2309874,-0.2309874,0,58.783642,106.30941)">
      <path
         style="color:#000000;fill:#000000;stroke-linecap:round;stroke-linejoin:round;-inkscape-stroke:none"
         d="m 40.224609,37.089844 c -0.476054,0.196626 -0.786734,0.660719 -0.787109,1.175781 v 3.367187 H 14.552734 c -0.703371,-1.71e-4 -1.273609,0.570067 -1.273437,1.273438 v 9.910156 c -1.72e-4,0.703371 0.570066,1.273609 1.273437,1.273438 H 39.4375 v 3.365234 c -5.51e-4,1.13485 1.371782,1.703265 2.173828,0.900391 l 9.595703,-9.59375 c 0.497393,-0.497222 0.497393,-1.30356 0,-1.800782 l -9.595703,-9.59375 c -0.36367,-0.364279 -0.910916,-0.473728 -1.386719,-0.277343 z"
         id="path4457"
         sodipodi:nodetypes="cccccccccccccc" />
    </g>
    <g
       id="g4463"
       transform="matrix(0,-0.2309874,-0.2309874,0,100.51761,106.30941)">
      <path
         style="color:#000000;fill:#000000;stroke-linecap:round;stroke-linejoin:round;-inkscape-stroke:none"
         d="m 40.224609,37.089844 c -0.476054,0.196626 -0.786734,0.660719 -0.787109,1.175781 v 3.367187 H 14.552734 c -0.703371,-1.71e-4 -1.273609,0.570067 -1.273437,1.273438 v 9.910156 c -1.72e-4,0.703371 0.570066,1.273609 1.273437,1.273438 H 39.4375 v 3.365234 c -5.51e-4,1.13485 1.371782,1.703265 2.173828,0.900391 l 9.595703,-9.59375 c 0.497393,-0.497222 0.497393,-1.30356 0,-1.800782 l -9.595703,-9.59375 c -0.36367,-0.364279 -0.910916,-0.473728 -1.386719,-0.277343 z"
         id="path4461"
         sodipodi:nodetypes="cccccccccccccc" />
    </g>
    <path
       id="path4465"
       style="fill:#212121;stroke:none;stroke-width:1.80204;stroke-linecap:round;stroke-linejoin:round;stroke-dasharray:none;stroke-opacity:1"
       d="m 100.76372,77.228031 7.85803,7.858392 -7.85839,7.858395 h 32.27591 0.10278 l 7.85839,-7.858395 -7.85802,-7.858392 h -0.10315 z"
       sodipodi:nodetypes="ccccccccc" />
    <text
       xml:space="preserve"
       style="font-style:normal;font-variant:normal;font-weight:normal;font-stretch:normal;font-size:4.95667px;font-family:'Segoe UI';-inkscape-font-specification:'Segoe UI, Normal';font-variant-ligatures:normal;font-variant-caps:normal;font-variant-numeric:normal;font-variant-east-asian:normal;writing-mode:tb-rl;fill:#ffffff;stroke:none;stroke-width:1.12175;stroke-linecap:round;stroke-linejoin:round;stroke-dasharray:none;stroke-opacity:1"
       x="110.17471"
       y="83.314499"
       id="text4469"><tspan
         sodipodi:role="line"
         id="tspan4467"
         style="writing-mode:lr-tb;stroke-width:1.12175"
         x="110.17471"
         y="83.314499">Area </tspan><tspan
         sodipodi:role="line"
         style="writing-mode:lr-tb;stroke-width:1.12175"
         x="110.17471"
         y="89.510338"
         id="tspan4471">Evaluativa</tspan></text>
    <g
       id="g4475"
       transform="matrix(0,0.2309874,-0.2309874,0,100.51761,63.863441)">
      <path
         style="color:#000000;fill:#000000;stroke-linecap:round;stroke-linejoin:round;-inkscape-stroke:none"
         d="m 40.224609,37.089844 c -0.476054,0.196626 -0.786734,0.660719 -0.787109,1.175781 v 3.367187 H 14.552734 c -0.703371,-1.71e-4 -1.273609,0.570067 -1.273437,1.273438 v 9.910156 c -1.72e-4,0.703371 0.570066,1.273609 1.273437,1.273438 H 39.4375 v 3.365234 c -5.51e-4,1.13485 1.371782,1.703265 2.173828,0.900391 l 9.595703,-9.59375 c 0.497393,-0.497222 0.497393,-1.30356 0,-1.800782 l -9.595703,-9.59375 c -0.36367,-0.364279 -0.910916,-0.473728 -1.386719,-0.277343 z"
         id="path4473"
         sodipodi:nodetypes="cccccccccccccc" />
    </g>
    <text
       xml:space="preserve"
       style="font-style:normal;font-variant:normal;font-weight:normal;font-stretch:normal;font-size:7.96266px;font-family:'Segoe UI';-inkscape-font-specification:'Segoe UI, Normal';font-variant-ligatures:normal;font-variant-caps:normal;font-variant-numeric:normal;font-variant-east-asian:normal;letter-spacing:-2.73579px;writing-mode:tb-rl;fill:#212121;stroke-width:0.386454;stroke-linecap:round;stroke-linejoin:round"
       x="165.93092"
       y="33.840385"
       id="text4479"><tspan
         sodipodi:role="line"
         id="tspan4477"
         style="writing-mode:tb-rl;direction:ltr;text-orientation:upright;stroke-width:0.386455"
         x="165.93092"
         y="33.840385">Satisfaccion</tspan></text>
    <path
       id="path4481"
       style="fill:#212121;stroke:none;stroke-width:1.80204;stroke-linecap:round;stroke-linejoin:round;stroke-dasharray:none;stroke-opacity:1"
       d="m 107.33239,103.93172 7.85803,7.8584 -7.85839,7.85839 h 45.05838 0.10278 l 7.85839,-7.85839 -7.85802,-7.8584 h -0.10315 z"
       sodipodi:nodetypes="ccccccccc" />
    <text
       xml:space="preserve"
       style="font-style:normal;font-variant:normal;font-weight:normal;font-stretch:normal;font-size:4.95667px;font-family:'Segoe UI';-inkscape-font-specification:'Segoe UI, Normal';font-variant-ligatures:normal;font-variant-caps:normal;font-variant-numeric:normal;font-variant-east-asian:normal;writing-mode:tb-rl;fill:#ffffff;stroke:none;stroke-width:1.12175;stroke-linecap:round;stroke-linejoin:round;stroke-dasharray:none;stroke-opacity:1"
       x="116.93892"
       y="113.49639"
       id="text4485"><tspan
         sodipodi:role="line"
         id="tspan4483"
         style="writing-mode:lr-tb;stroke-width:1.12175"
         x="116.93892"
         y="113.49639">Retroalimentacion</tspan></text>
    <g
       id="g4489"
       transform="matrix(0.30451447,0,0,0.30451447,142.61059,70.511618)">
      <path
         style="color:#000000;fill:#000000;stroke-linecap:round;stroke-linejoin:round;-inkscape-stroke:none"
         d="m 40.224609,37.089844 c -0.476054,0.196626 -0.786734,0.660719 -0.787109,1.175781 v 3.367187 H 14.552734 c -0.703371,-1.71e-4 -1.273609,0.570067 -1.273437,1.273438 v 9.910156 c -1.72e-4,0.703371 0.570066,1.273609 1.273437,1.273438 H 39.4375 v 3.365234 c -5.51e-4,1.13485 1.371782,1.703265 2.173828,0.900391 l 9.595703,-9.59375 c 0.497393,-0.497222 0.497393,-1.30356 0,-1.800782 l -9.595703,-9.59375 c -0.36367,-0.364279 -0.910916,-0.473728 -1.386719,-0.277343 z"
         id="path4487"
         sodipodi:nodetypes="cccccccccccccc" />
    </g>
    <g
       id="g4493"
       transform="matrix(0,-0.2309874,-0.2309874,0,144.89743,106.30941)">
      <path
         style="color:#000000;fill:#000000;stroke-linecap:round;stroke-linejoin:round;-inkscape-stroke:none"
         d="m 40.224609,37.089844 c -0.476054,0.196626 -0.786734,0.660719 -0.787109,1.175781 v 3.367187 H 14.552734 c -0.703371,-1.71e-4 -1.273609,0.570067 -1.273437,1.273438 v 9.910156 c -1.72e-4,0.703371 0.570066,1.273609 1.273437,1.273438 H 39.4375 v 3.365234 c -5.51e-4,1.13485 1.371782,1.703265 2.173828,0.900391 l 9.595703,-9.59375 c 0.497393,-0.497222 0.497393,-1.30356 0,-1.800782 l -9.595703,-9.59375 c -0.36367,-0.364279 -0.910916,-0.473728 -1.386719,-0.277343 z"
         id="path4491"
         sodipodi:nodetypes="cccccccccccccc" />
    </g>
  </g>
</svg>
